<svg width="24" height="24" viewBox="0 0 24 24" fill="none" xmlns="http://www.w3.org/2000/svg">
<path fill-rule="evenodd" clip-rule="evenodd" d="M7.33043 2H16.6694C20.0704 2 21.9904 3.929 22.0004 7.33V16.67C22.0004 20.07 20.0704 22 16.6694 22H7.33043C3.92943 22 2.00043 20.07 2.00043 16.67V7.33C2.00043 3.929 3.92943 2 7.33043 2ZM12.0494 17.86C12.4804 17.86 12.8394 17.54 12.8794 17.11V6.92C12.9194 6.61 12.7704 6.299 12.5004 6.13C12.2194 5.96 11.8794 5.96 11.6104 6.13C11.3394 6.299 11.1904 6.61 11.2194 6.92V17.11C11.2704 17.54 11.6294 17.86 12.0494 17.86ZM16.6504 17.86C17.0704 17.86 17.4294 17.54 17.4804 17.11V13.83C17.5094 13.509 17.3604 13.21 17.0894 13.04C16.8204 12.87 16.4804 12.87 16.2004 13.04C15.9294 13.21 15.7804 13.509 15.8204 13.83V17.11C15.8604 17.54 16.2194 17.86 16.6504 17.86ZM8.21943 17.11C8.17943 17.54 7.82043 17.86 7.38943 17.86C6.95943 17.86 6.59943 17.54 6.56043 17.11V10.2C6.53043 9.889 6.67943 9.58 6.95043 9.41C7.21943 9.24 7.56043 9.24 7.83043 9.41C8.09943 9.58 8.25043 9.889 8.21943 10.2V17.11Z" fill="white"/>
</svg>
