<svg width="32" height="32" viewBox="0 0 32 32" fill="none" xmlns="http://www.w3.org/2000/svg">
<path d="M16 0V16L0 10.7946V8.10794C0 3.62219 3.62219 0 8.10794 0H16Z" fill="white"/>
<path d="M32 8.10794V10.7946L16 16V0H23.8921C28.3778 0 32 3.62219 32 8.10794Z" fill="#E5E5E5"/>
<path d="M32 10.7949V23.8684C32 27.2027 30.009 30.0573 27.1304 31.3047L16 15.9763L32 10.7949Z" fill="#D4D4D4"/>
<path d="M27.1304 31.3283C26.1469 31.7601 25.0435 32 23.8921 32H8.13193C6.98051 32 5.87706 31.7601 4.89355 31.3283L16.024 16L27.1304 31.3283Z" fill="#BDBDBD"/>
<path d="M16 16.0003L4.86956 31.3287C2.01499 30.0813 0 27.2267 0 23.8924V10.7949L16 16.0003Z" fill="#E5E5E5"/>
<path d="M16 5.54102L6.06897 12.7614L9.85907 24.4436H22.1409L25.931 12.7614L16 5.54102Z" fill="#0EB800"/>
</svg>
