<svg width="24" height="24" viewBox="0 0 24 24" fill="none" xmlns="http://www.w3.org/2000/svg">
<path d="M6.45466 11.0025H6.41529L2.71404 8.76465C2.09243 10.5236 1.98768 12.4238 2.41217 14.2404C2.83667 16.057 3.77264 17.714 5.10935 19.0153L8.00998 15.78L6.45466 11.0025Z" fill="#BDBDBD"/>
<path d="M17.1384 9.59803L20.7216 7.44553C19.9398 5.95209 18.7876 4.68443 17.3753 3.76402C15.9631 2.8436 14.3382 2.30126 12.6562 2.18896V6.34303L17.1384 9.59803Z" fill="#BDBDBD"/>
<path d="M8.86969 16.9614H8.73188L6.09375 19.8752C7.76001 21.1329 9.78487 21.8247 11.8724 21.8495C13.9599 21.8743 16.0006 21.2308 17.6963 20.013L14.9663 16.968L8.86969 16.9614Z" fill="#BDBDBD"/>
<path d="M11.3437 6.34303V2.18896C9.64387 2.30334 8.00283 2.85691 6.58106 3.79556C5.15929 4.7342 4.00547 6.02577 3.23244 7.54396L6.74994 9.66365L11.3437 6.34303Z" fill="#BDBDBD"/>
<path d="M11.9999 7.48486L7.70804 10.6086L9.34866 15.6486H14.6512L16.2918 10.6086L11.9999 7.48486Z" fill="#BDBDBD"/>
<path d="M21.8438 12C21.8421 10.8601 21.64 9.72947 21.2466 8.65967L17.5913 10.8515L15.9375 16.0294L18.7528 19.1728C19.7301 18.2513 20.5086 17.1396 21.0401 15.9061C21.5717 14.6725 21.8452 13.3432 21.8438 12Z" fill="#BDBDBD"/>
</svg>
