<svg width="24" height="24" viewBox="0 0 24 24" fill="none" xmlns="http://www.w3.org/2000/svg">
<g opacity="0.5">
<path d="M9.25 12C9.25197 11.3919 9.45547 10.8015 9.82866 10.3214C10.2018 9.84121 10.7237 9.49828 11.3125 9.34625V3.4375L4.6875 3.4375C3.03065 3.4375 1.6875 4.78065 1.6875 6.4375V7.1875C5.07687 6.80938 7.875 9.14 7.875 12C7.875 14.86 5.30375 16.9019 2.375 16.9019C2.14497 16.8967 1.91543 16.8783 1.6875 16.8469V17.5625C1.6875 19.2194 3.03065 20.5625 4.6875 20.5625H11.3125V14.6538C10.7237 14.5017 10.2018 14.1588 9.82866 13.6786C9.45547 13.1985 9.25197 12.6081 9.25 12Z" fill="#BDBDBD"/>
<path d="M12 13.375C12.7594 13.375 13.375 12.7594 13.375 12C13.375 11.2406 12.7594 10.625 12 10.625C11.2406 10.625 10.625 11.2406 10.625 12C10.625 12.7594 11.2406 13.375 12 13.375Z" fill="#BDBDBD"/>
<path d="M6.5 11.9998C6.5 9.9373 4.36875 8.16355 1.6875 8.5623V15.4373C4.34812 15.8292 6.5 14.0623 6.5 11.9998Z" fill="#BDBDBD"/>
<path d="M16.125 12C16.125 9.1538 18.875 6.7888 22.3125 7.18755V6.43751C22.3125 4.78065 20.9693 3.43751 19.3125 3.43751L12.6875 3.43755V9.3463C13.2701 9.50462 13.7843 9.85024 14.151 10.3298C14.5177 10.8094 14.7163 11.3964 14.7163 12C14.7163 12.6037 14.5177 13.1907 14.151 13.6703C13.7843 14.1499 13.2701 14.4955 12.6875 14.6538V20.5625H19.3125C20.9694 20.5625 22.3125 19.2194 22.3125 17.5625V16.8469C22.0846 16.8784 21.855 16.8967 21.625 16.9019C18.6962 16.9019 16.125 14.805 16.125 12Z" fill="#BDBDBD"/>
<path d="M17.5 12C17.5 14.0625 19.6244 15.8294 22.3125 15.4375V8.56252C19.6244 8.17752 17.5 9.93752 17.5 12Z" fill="#BDBDBD"/>
</g>
</svg>
