<svg width="24" height="25" viewBox="0 0 24 25" fill="none" xmlns="http://www.w3.org/2000/svg">
<rect x="2" y="4.75781" width="20" height="1.5" rx="0.75" fill="white"/>
<rect x="2" y="11.7578" width="20" height="1.5" rx="0.75" fill="white"/>
<rect x="2" y="19" width="20" height="1.5" rx="0.75" fill="white"/>
<path d="M16.5 21.2578C17.3284 21.2578 18 20.5862 18 19.7578C18 18.9294 17.3284 18.2578 16.5 18.2578C15.6716 18.2578 15 18.9294 15 19.7578C15 20.5862 15.6716 21.2578 16.5 21.2578Z" stroke="white" stroke-width="2" stroke-linecap="round" stroke-linejoin="round"/>
<path d="M6.5 7.00781C7.32843 7.00781 8 6.33624 8 5.50781C8 4.67939 7.32843 4.00781 6.5 4.00781C5.67157 4.00781 5 4.67939 5 5.50781C5 6.33624 5.67157 7.00781 6.5 7.00781Z" stroke="white" stroke-width="2" stroke-linecap="round" stroke-linejoin="round"/>
<path d="M11.5 14.0078C12.3284 14.0078 13 13.3362 13 12.5078C13 11.6794 12.3284 11.0078 11.5 11.0078C10.6716 11.0078 10 11.6794 10 12.5078C10 13.3362 10.6716 14.0078 11.5 14.0078Z" stroke="white" stroke-width="2" stroke-linecap="round" stroke-linejoin="round"/>
</svg>
