<svg width="25" height="24" viewBox="0 0 25 24" fill="none" xmlns="http://www.w3.org/2000/svg">
<g opacity="0.5">
<path fill-rule="evenodd" clip-rule="evenodd" d="M10.3033 15.2526C10.9277 15.6759 11.6888 15.9319 12.4987 15.9319C14.6453 15.9319 16.3919 14.1696 16.3919 12.0037C16.3919 11.1866 16.1382 10.4186 15.7186 9.78855L14.6551 10.8617C14.8307 11.1964 14.9283 11.5902 14.9283 12.0037C14.9283 13.3525 13.8354 14.4551 12.4987 14.4551C12.0889 14.4551 11.6986 14.3567 11.3668 14.1795L10.3033 15.2526ZM18.9288 6.54952C20.3436 7.84907 21.5438 9.60149 22.4415 11.7083C22.5195 11.8954 22.5195 12.112 22.4415 12.2892C20.3534 17.1921 16.6358 20.1259 12.4987 20.1259H12.4889C10.6058 20.1259 8.80063 19.5056 7.21018 18.3735L5.31725 20.2834C5.17089 20.4311 4.9855 20.5 4.80011 20.5C4.61472 20.5 4.41957 20.4311 4.28297 20.2834C4.03903 20.0373 4 19.6435 4.19515 19.358L4.22442 19.3186L18.6556 4.75771C18.6751 4.73802 18.6946 4.71833 18.7044 4.69864L18.7044 4.69863C18.7239 4.67894 18.7434 4.65925 18.7532 4.63957L19.6704 3.71413C19.9631 3.42862 20.4217 3.42862 20.7046 3.71413C20.9974 3.99964 20.9974 4.4722 20.7046 4.75771L18.9288 6.54952ZM8.59836 12.0075C8.59836 12.2635 8.62764 12.5195 8.66667 12.7558L5.05643 16.3984C4.0807 15.2564 3.2318 13.8781 2.55854 12.293C2.48049 12.1158 2.48049 11.8992 2.55854 11.7122C4.64662 6.80933 8.36419 3.88534 12.4916 3.88534H12.5013C13.8966 3.88534 15.2529 4.22007 16.5018 4.85015L13.2429 8.13841C13.0087 8.09903 12.755 8.0695 12.5013 8.0695C10.3449 8.0695 8.59836 9.83177 8.59836 12.0075Z" fill="#828282"/>
</g>
</svg>
