<svg width="16" height="16" viewBox="0 0 16 16" fill="none" xmlns="http://www.w3.org/2000/svg">
<path fill-rule="evenodd" clip-rule="evenodd" d="M6.53554 10.1685C6.95186 10.4508 7.45924 10.6214 7.99915 10.6214C9.43023 10.6214 10.5946 9.44656 10.5946 8.00262C10.5946 7.45785 10.4255 6.94591 10.1458 6.52585L9.43674 7.24126C9.55382 7.46442 9.61887 7.72695 9.61887 8.00262C9.61887 8.9018 8.89032 9.6369 7.99915 9.6369C7.72594 9.6369 7.46574 9.57127 7.24458 9.45312L6.53554 10.1685ZM12.2859 4.36651C13.2291 5.23287 14.0292 6.40116 14.6276 7.80572C14.6797 7.93043 14.6797 8.07482 14.6276 8.19296C13.2356 11.4615 10.7572 13.4174 7.99911 13.4174H7.99261C6.73715 13.4174 5.53374 13.0039 4.47344 12.2491L3.21149 13.5224C3.11391 13.6209 2.99032 13.6668 2.86673 13.6668C2.74313 13.6668 2.61303 13.6209 2.52197 13.5224C2.35934 13.3583 2.33332 13.0958 2.46342 12.9055L2.48294 12.8792L12.1037 3.17197C12.1167 3.15884 12.1297 3.14572 12.1362 3.13259C12.1493 3.11946 12.1623 3.10634 12.1688 3.09321L12.7802 2.47625C12.9754 2.28591 13.2811 2.28591 13.4697 2.47625C13.6649 2.66659 13.6649 2.98163 13.4697 3.17197L12.2859 4.36651ZM5.39892 8.00517C5.39892 8.17582 5.41843 8.34647 5.44445 8.50399L3.03763 10.9324C2.38714 10.1711 1.82121 9.25222 1.37237 8.19551C1.32033 8.07737 1.32033 7.93297 1.37237 7.80827C2.76443 4.5397 5.2428 2.59037 7.99438 2.59037H8.00089C8.93109 2.59037 9.83528 2.81353 10.6679 3.23359L8.49526 5.42576C8.33914 5.39951 8.17002 5.37982 8.00089 5.37982C6.5633 5.37982 5.39892 6.55466 5.39892 8.00517Z" fill="#0EB800"/>
</svg>
