<svg width="25" height="24" viewBox="0 0 25 24" fill="none" xmlns="http://www.w3.org/2000/svg">
<g id="Iconly/Bold/Lock">
<g id="Lock">
<path id="Lock_2" fill-rule="evenodd" clip-rule="evenodd" d="M18.0227 7.39601V8.92935C19.7451 9.46696 21 11.0261 21 12.8884V17.8253C21 20.1308 19.0886 22 16.7322 22H8.2688C5.91136 22 4 20.1308 4 17.8253V12.8884C4 11.0261 5.25595 9.46696 6.97729 8.92935V7.39601C6.98745 4.41479 9.45667 2 12.4848 2C15.5535 2 18.0227 4.41479 18.0227 7.39601ZM12.5051 3.73904C14.5678 3.73904 16.2445 5.37871 16.2445 7.39601V8.7137H8.75553V7.37613C8.76569 5.36878 10.4423 3.73904 12.5051 3.73904ZM13.3891 16.4549C13.3891 16.9419 12.9928 17.3294 12.4949 17.3294C12.0072 17.3294 11.6109 16.9419 11.6109 16.4549V14.2488C11.6109 13.7718 12.0072 13.3843 12.4949 13.3843C12.9928 13.3843 13.3891 13.7718 13.3891 14.2488V16.4549Z" fill="#828282"/>
</g>
</g>
</svg>
