<svg width="32" height="32" viewBox="0 0 32 32" fill="none" xmlns="http://www.w3.org/2000/svg">
<path d="M16 0.000488281V16.0005L0 10.7951V8.10843C0 3.62268 3.62219 0.000488281 8.10794 0.000488281H16Z" fill="#0EB800"/>
<path d="M32 8.10794V10.7946L16 16V0H23.8921C28.3778 0 32 3.62219 32 8.10794Z" fill="#0EA200"/>
<path d="M32 10.7944V23.8679C32 27.2022 30.009 30.0568 27.1304 31.3042L16 15.9758L32 10.7944Z" fill="#0E8600"/>
<path d="M27.1304 31.3283C26.1469 31.7601 25.0435 32 23.8921 32H8.13193C6.98051 32 5.87706 31.7601 4.89355 31.3283L16.024 16L27.1304 31.3283Z" fill="#005A00"/>
<path d="M16 15.9998L4.86956 31.3282C2.01499 30.0808 0 27.2262 0 23.8919V10.7944L16 15.9998Z" fill="#007100"/>
<path d="M16 5.54102L6.06897 12.7614L9.85907 24.4436H22.1409L25.931 12.7614L16 5.54102Z" fill="white"/>
</svg>
