<svg width="24" height="24" viewBox="0 0 24 24" fill="none" xmlns="http://www.w3.org/2000/svg">
<g clip-path="url(#clip0_60_2625)">
<path d="M0.946085 7.69312C0.818631 7.84583 0.757062 8.04293 0.774923 8.24103C0.792784 8.43914 0.888613 8.62204 1.04133 8.7495L2.76875 10.1912L2.28818 10.767C2.16073 10.9197 2.09916 11.1168 2.11702 11.3149C2.13488 11.513 2.23071 11.6959 2.38343 11.8234C2.53614 11.9508 2.73323 12.0124 2.93134 11.9945C3.12945 11.9767 3.31235 11.8809 3.4398 11.7281L3.92037 11.1523L5.07199 12.1135L4.59142 12.6893C4.46396 12.842 4.4024 13.0391 4.42026 13.2372C4.43812 13.4353 4.53395 13.6182 4.68666 13.7456C4.83937 13.8731 5.03646 13.9347 5.23457 13.9168C5.43268 13.8989 5.61558 13.8031 5.74304 13.6504L6.2236 13.0746L11.9817 17.8803L11.5011 18.4561C11.3737 18.6088 11.3121 18.8059 11.33 19.004C11.3478 19.2021 11.4436 19.385 11.5964 19.5125C11.7491 19.6399 11.9462 19.7015 12.1443 19.6836C12.3424 19.6658 12.5253 19.5699 12.6527 19.4172L13.1333 18.8414L14.2849 19.8025L13.8044 20.3783C13.6769 20.5311 13.6153 20.7281 13.6332 20.9263C13.6511 21.1244 13.7469 21.3073 13.8996 21.4347C14.0523 21.5622 14.2494 21.6237 14.4475 21.6059C14.6456 21.588 14.8285 21.4922 14.956 21.3395L15.4365 20.7637C15.9547 21.159 16.584 21.3812 17.2355 21.3989C17.8869 21.4167 18.5275 21.2289 19.0663 20.8624L1.90722 6.5415L0.946085 7.69312Z" fill="#BDBDBD"/>
<path d="M20.2923 17.2163L17.3752 9.07673C17.1507 8.5871 16.7871 8.17434 16.3297 7.88987C15.8723 7.60539 15.3413 7.46178 14.8029 7.47692C13.1435 7.55731 8.99587 3.90037 9.07364 2.6367C9.09102 2.27549 8.99087 1.91838 8.78819 1.61889C8.5855 1.31941 8.29121 1.09368 7.94943 0.975546C7.61933 0.868477 7.26448 0.864373 6.932 0.963779C6.59952 1.06318 6.30515 1.2614 6.088 1.53208L2.8682 5.39L20.0849 19.7589C20.2962 19.3735 20.4239 18.9478 20.4596 18.5097C20.4953 18.0716 20.4383 17.6309 20.2923 17.2163Z" fill="#BDBDBD"/>
</g>
<defs>
<clipPath id="clip0_60_2625">
<rect width="24" height="24" fill="white"/>
</clipPath>
</defs>
</svg>
